<?xml version="1.0" encoding="UTF-8" standalone="no"?>
<svg
   xmlns:dc="http://purl.org/dc/elements/1.1/"
   xmlns:cc="http://creativecommons.org/ns#"
   xmlns:rdf="http://www.w3.org/1999/02/22-rdf-syntax-ns#"
   xmlns:svg="http://www.w3.org/2000/svg"
   xmlns="http://www.w3.org/2000/svg"
   xmlns:sodipodi="http://sodipodi.sourceforge.net/DTD/sodipodi-0.dtd"
   xmlns:inkscape="http://www.inkscape.org/namespaces/inkscape"
   width="25.030121mm"
   height="9.4525681mm"
   viewBox="0 0 25.030121 9.4525681"
   version="1.1"
   id="svg1496"
   inkscape:version="1.0 (4035a4fb49, 2020-05-01)"
   sodipodi:docname="soil2.svg">
  <defs
     id="defs1490" />
  <sodipodi:namedview
     id="base"
     pagecolor="#ffffff"
     bordercolor="#666666"
     borderopacity="1.0"
     inkscape:pageopacity="0.0"
     inkscape:pageshadow="2"
     inkscape:zoom="5.6"
     inkscape:cx="25.34623"
     inkscape:cy="13.538897"
     inkscape:document-units="mm"
     inkscape:current-layer="layer1"
     inkscape:document-rotation="0"
     showgrid="false"
     inkscape:window-width="1366"
     inkscape:window-height="705"
     inkscape:window-x="-8"
     inkscape:window-y="-8"
     inkscape:window-maximized="1" />
  <metadata
     id="metadata1493">
    <rdf:RDF>
      <cc:Work
         rdf:about="">
        <dc:format>image/svg+xml</dc:format>
        <dc:type
           rdf:resource="http://purl.org/dc/dcmitype/StillImage" />
        <dc:title />
      </cc:Work>
    </rdf:RDF>
  </metadata>
  <g
     inkscape:label="Layer 1"
     inkscape:groupmode="layer"
     id="layer1"
     transform="translate(-186.30042,-224.32729)">
    <path
       sodipodi:nodetypes="cc"
       id="path1058"
       d="m 194.87287,225.67877 c -4.11402,0.60093 -9.62899,0.78368 -8.0849,3.0736"
       style="fill:none;stroke:#000000;stroke-width:0.265;stroke-linecap:round;stroke-linejoin:miter;stroke-miterlimit:4;stroke-dasharray:none;stroke-opacity:1" />
    <path
       sodipodi:nodetypes="cccc"
       id="path1060"
       d="m 186.78797,228.75237 c 2.14508,2.08239 7.72362,1.78778 12.61178,1.97111 3.54519,0.0301 7.00255,-0.16815 10.10613,-1.28623 1.25357,-0.51783 2.26239,-0.97829 0.96885,-2.15486"
       style="fill:none;stroke:#000000;stroke-width:0.265;stroke-linecap:round;stroke-linejoin:miter;stroke-miterlimit:4;stroke-dasharray:none;stroke-opacity:1" />
    <path
       sodipodi:nodetypes="cc"
       id="path1062"
       d="m 210.47473,227.28239 c -2.85455,-1.58306 -7.238,-1.47121 -7.33321,-1.58691"
       style="fill:none;stroke:#000000;stroke-width:0.265;stroke-linecap:round;stroke-linejoin:miter;stroke-miterlimit:4;stroke-dasharray:none;stroke-opacity:1" />
    <path
       sodipodi:nodetypes="ccccccc"
       id="path1066"
       d="m 189.69453,230.08872 c 0.45685,-1.27109 1.26016,-1.94377 2.20497,-2.37202 2.92118,0.33059 3.71644,-0.47714 3.95894,-0.85192 0.96778,0.0408 0.99731,0.59058 3.30746,0.15034 0.38758,0.0643 3.08883,2.5759 6.31423,0.45102 0.68168,-0.27053 -2.7226,1.28076 0,0 2.31338,2.39615 2.0527,2.08173 1.87089,2.57247"
       style="fill:none;stroke:#000000;stroke-width:0.265;stroke-linecap:round;stroke-linejoin:miter;stroke-miterlimit:4;stroke-dasharray:none;stroke-opacity:1" />
    <path
       sodipodi:nodetypes="ccc"
       id="path1068"
       d="m 211.1095,228.56862 c -0.01,-0.45779 0.005,-0.48628 0.0835,0.65147 -1.31147,0.85348 -2.96485,1.50182 -4.94449,1.95441"
       style="fill:none;stroke:#000000;stroke-width:0.265;stroke-linecap:round;stroke-linejoin:miter;stroke-miterlimit:4;stroke-dasharray:none;stroke-opacity:1" />
    <path
       sodipodi:nodetypes="cc"
       id="path1070"
       d="m 206.24853,231.1745 c -5.04384,0.23646 -10.01786,0.6824 -15.4014,-0.10022"
       style="fill:none;stroke:#000000;stroke-width:0.265;stroke-linecap:round;stroke-linejoin:miter;stroke-miterlimit:4;stroke-dasharray:none;stroke-opacity:1" />
    <path
       sodipodi:nodetypes="ccc"
       id="path1072"
       d="m 186.5207,227.96727 -0.0835,1.43657 c 2.65228,1.70028 4.2412,1.55403 4.40995,1.67044"
       style="fill:none;stroke:#000000;stroke-width:0.265;stroke-linecap:round;stroke-linejoin:miter;stroke-miterlimit:4;stroke-dasharray:none;stroke-opacity:1" />
    <path
       sodipodi:nodetypes="ccc"
       id="path1074"
       d="m 189.30914,230.75857 c 2.41937,0.9776 4.94543,2.0721 7.26758,2.63761 1.69292,0.34547 3.07338,0.33385 4.14268,-0.0334"
       style="fill:none;stroke:#000000;stroke-width:0.265;stroke-linecap:round;stroke-linejoin:miter;stroke-miterlimit:4;stroke-dasharray:none;stroke-opacity:1" />
    <path
       sodipodi:nodetypes="cc"
       id="path1076"
       d="m 207.05894,231.02011 c -2.08597,0.8069 -3.29304,1.57489 -6.33954,2.34267"
       style="fill:none;stroke:#000000;stroke-width:0.265;stroke-linecap:round;stroke-linejoin:miter;stroke-miterlimit:4;stroke-dasharray:none;stroke-opacity:1" />
    <path
       style="fill:none;stroke:#000000;stroke-width:0.267411px;stroke-linecap:round;stroke-linejoin:miter;stroke-opacity:1"
       d="m 197.84172,225.39657 c 5.30001,0.29871 5.30001,0.29871 5.30001,0.29871"
       id="path2141" />
    <path
       style="fill:none;stroke:#000000;stroke-width:0.264583px;stroke-linecap:round;stroke-linejoin:miter;stroke-opacity:1"
       d="m 197.84172,225.39657 c -2.96885,0.2822 -2.96885,0.2822 -2.96885,0.2822"
       id="path2149" />
    <path
       style="stroke-width:0.178571;fill:#4d4d4d"
       d="m 47.043706,23.556372 c -0.07366,-0.01886 -2.323661,-0.07797 -5,-0.131337 C 28.767915,23.160298 23.269017,22.8723 18.070491,22.169468 c -1.370067,-0.18523 -4.436305,-0.706103 -4.499263,-0.764305 -0.06649,-0.06146 1.050163,-2.226608 1.494041,-2.896894 0.950087,-1.434693 2.331411,-2.811224 3.80476,-3.791556 1.124389,-0.748143 2.278526,-1.332557 2.590217,-1.311596 0.149028,0.01002 0.753103,0.05904 1.342388,0.108927 1.608315,0.136156 4.985555,0.110525 6.339286,-0.04811 1.965054,-0.230272 3.776319,-0.746697 5.032915,-1.434975 0.708951,-0.388315 1.704241,-1.173768 1.982471,-1.564506 0.196555,-0.276035 0.212135,-0.280848 0.744471,-0.229964 0.299043,0.02858 1.172043,0.231256 1.939999,0.450381 1.867173,0.532771 2.525661,0.627435 4.318001,0.620757 1.468757,-0.0055 2.784662,-0.13224 4.604853,-0.44361 l 0.854853,-0.146234 1.68979,1.010449 c 4.621611,2.7636 8.033939,3.857134 12.046933,3.860627 3.186099,0.0028 5.937128,-0.724754 8.927733,-2.360998 l 1.159877,-0.634601 0.849051,0.891737 c 0.46698,0.490455 1.697969,1.777496 2.735533,2.86009 2.153962,2.247442 3.009698,3.2223 3.264163,3.718549 0.172978,0.337337 0.173495,0.357313 0.01843,0.714286 -0.08774,0.201983 -0.167631,0.379897 -0.17754,0.395364 -0.07987,0.124664 -4.0489,0.859314 -6.598678,1.221386 -3.192551,0.453347 -6.329656,0.749528 -10.982143,1.036845 -1.431243,0.08839 -14.221567,0.198454 -14.508928,0.124856 z"
       id="path28"
       transform="matrix(0.26458333,0,0,0.26458333,186.30042,224.32729)" />
  </g>
</svg>
