<?xml version="1.0" encoding="UTF-8" standalone="no"?>
<svg
   xmlns:dc="http://purl.org/dc/elements/1.1/"
   xmlns:cc="http://creativecommons.org/ns#"
   xmlns:rdf="http://www.w3.org/1999/02/22-rdf-syntax-ns#"
   xmlns:svg="http://www.w3.org/2000/svg"
   xmlns="http://www.w3.org/2000/svg"
   xmlns:sodipodi="http://sodipodi.sourceforge.net/DTD/sodipodi-0.dtd"
   xmlns:inkscape="http://www.inkscape.org/namespaces/inkscape"
   width="25.030121mm"
   height="9.1230059mm"
   viewBox="0 0 25.030121 9.1230059"
   version="1.1"
   id="svg1496"
   inkscape:version="1.0 (4035a4fb49, 2020-05-01)"
   sodipodi:docname="soil1.svg">
  <defs
     id="defs1490" />
  <sodipodi:namedview
     id="base"
     pagecolor="#ffffff"
     bordercolor="#666666"
     borderopacity="1.0"
     inkscape:pageopacity="0.0"
     inkscape:pageshadow="2"
     inkscape:zoom="0.9899495"
     inkscape:cx="153.20504"
     inkscape:cy="-49.098183"
     inkscape:document-units="mm"
     inkscape:current-layer="layer1"
     inkscape:document-rotation="0"
     showgrid="false"
     inkscape:window-width="1366"
     inkscape:window-height="705"
     inkscape:window-x="-8"
     inkscape:window-y="-8"
     inkscape:window-maximized="1" />
  <metadata
     id="metadata1493">
    <rdf:RDF>
      <cc:Work
         rdf:about="">
        <dc:format>image/svg+xml</dc:format>
        <dc:type
           rdf:resource="http://purl.org/dc/dcmitype/StillImage" />
        <dc:title />
      </cc:Work>
    </rdf:RDF>
  </metadata>
  <g
     inkscape:label="Layer 1"
     inkscape:groupmode="layer"
     id="layer1"
     transform="translate(-186.30042,-224.65685)">
    <path
       sodipodi:nodetypes="cc"
       id="path1058"
       d="m 194.87287,225.67877 c -4.11402,0.60093 -9.62899,0.78368 -8.0849,3.0736"
       style="fill:none;stroke:#000000;stroke-width:0.265;stroke-linecap:round;stroke-linejoin:miter;stroke-miterlimit:4;stroke-dasharray:none;stroke-opacity:1" />
    <path
       sodipodi:nodetypes="cccc"
       id="path1060"
       d="m 186.78797,228.75237 c 2.14508,2.08239 7.72362,1.78778 12.61178,1.97111 3.54519,0.0301 7.00255,-0.16815 10.10613,-1.28623 1.25357,-0.51783 2.26239,-0.97829 0.96885,-2.15486"
       style="fill:none;stroke:#000000;stroke-width:0.265;stroke-linecap:round;stroke-linejoin:miter;stroke-miterlimit:4;stroke-dasharray:none;stroke-opacity:1" />
    <path
       sodipodi:nodetypes="cc"
       id="path1062"
       d="m 210.47473,227.28239 c -2.85455,-1.58306 -7.238,-1.47121 -7.33321,-1.58691"
       style="fill:none;stroke:#000000;stroke-width:0.265;stroke-linecap:round;stroke-linejoin:miter;stroke-miterlimit:4;stroke-dasharray:none;stroke-opacity:1" />
    <path
       sodipodi:nodetypes="ccccccc"
       id="path1066"
       d="m 189.69453,230.08872 c 0.45685,-1.27109 1.26016,-1.94377 2.20497,-2.37202 2.7765,-1.40556 2.73088,-1.66315 2.97338,-2.03793 0.65202,-0.29511 1.23197,-0.59022 2.00452,-0.88533 0.38758,0.0643 5.37733,4.79758 8.60273,2.6727 0.68168,-0.27053 -2.7226,1.28076 0,0 2.31338,2.39615 2.0527,2.08173 1.87089,2.57247"
       style="fill:none;stroke:#000000;stroke-width:0.265;stroke-linecap:round;stroke-linejoin:miter;stroke-miterlimit:4;stroke-dasharray:none;stroke-opacity:1" />
    <path
       sodipodi:nodetypes="ccc"
       id="path1068"
       d="m 211.1095,228.56862 c -0.01,-0.45779 0.005,-0.48628 0.0835,0.65147 -1.31147,0.85348 -2.96485,1.50182 -4.94449,1.95441"
       style="fill:none;stroke:#000000;stroke-width:0.265;stroke-linecap:round;stroke-linejoin:miter;stroke-miterlimit:4;stroke-dasharray:none;stroke-opacity:1" />
    <path
       sodipodi:nodetypes="cc"
       id="path1070"
       d="m 206.24853,231.1745 c -5.04384,0.23646 -10.01786,0.6824 -15.4014,-0.10022"
       style="fill:none;stroke:#000000;stroke-width:0.265;stroke-linecap:round;stroke-linejoin:miter;stroke-miterlimit:4;stroke-dasharray:none;stroke-opacity:1" />
    <path
       sodipodi:nodetypes="ccc"
       id="path1072"
       d="m 186.5207,227.96727 -0.0835,1.43657 c 2.65228,1.70028 4.2412,1.55403 4.40995,1.67044"
       style="fill:none;stroke:#000000;stroke-width:0.265;stroke-linecap:round;stroke-linejoin:miter;stroke-miterlimit:4;stroke-dasharray:none;stroke-opacity:1" />
    <path
       sodipodi:nodetypes="ccc"
       id="path1074"
       d="m 189.30914,230.75857 c 2.41937,0.9776 4.94543,2.0721 7.26758,2.63761 1.69292,0.34547 3.07338,0.33385 4.14268,-0.0334"
       style="fill:none;stroke:#000000;stroke-width:0.265;stroke-linecap:round;stroke-linejoin:miter;stroke-miterlimit:4;stroke-dasharray:none;stroke-opacity:1" />
    <path
       sodipodi:nodetypes="cc"
       id="path1076"
       d="m 207.05894,231.02011 c -2.08597,0.8069 -3.29304,1.57489 -6.33954,2.34267"
       style="fill:none;stroke:#000000;stroke-width:0.265;stroke-linecap:round;stroke-linejoin:miter;stroke-miterlimit:4;stroke-dasharray:none;stroke-opacity:1" />
    <path
       style="fill:none;stroke:#000000;stroke-width:0.269486px;stroke-linecap:butt;stroke-linejoin:miter;stroke-opacity:1"
       d="m 197.75915,225.39657 c 5.38258,0.29871 5.38258,0.29871 5.38258,0.29871"
       id="path2141" />
    <path
       transform="matrix(0.26458333,0,0,0.26458333,186.30042,224.32729)"
       id="path850"
       d="M 40.862937,23.387183 C 27.173134,22.999512 19.240821,22.451059 15.022251,21.600516 13.49338,21.292267 13.49591,21.32042 14.800632,19.1347 c 1.380282,-2.312301 3.770395,-4.282943 7.551193,-6.22594 6.110543,-3.1402797 8.984219,-5.0119171 9.925762,-6.4646902 0.500582,-0.7723841 1.998939,-1.5885646 6.000619,-3.2686401 l 1.708416,-0.7172661 3.342347,2.4414875 c 6.327396,4.621982 11.221522,7.2750299 16.233417,8.7999439 2.001584,0.609 2.667166,0.687834 5.79675,0.68659 3.44291,-0.0014 3.581301,-0.02256 5.282555,-0.808901 l 1.747018,-0.807494 0.871459,0.829205 c 1.357541,1.291723 6.115286,6.519969 6.110968,6.715289 -0.01816,0.820525 -0.761142,1.052733 -5.877626,1.836931 -7.831694,1.200355 -18.978521,1.622571 -32.630573,1.235968 z"
       style="fill:#4d4d4d;stroke:#000000;stroke-width:0.403743" />
  </g>
</svg>
